HIERARCHY
ROOT Hips
{
  OFFSET 140.64 99.6833 51.5606
  CHANNELS 6 Xposition Yposition Zposition Zrotation Xrotation Yrotation
  JOINT RightUpLeg
  {
    OFFSET -8.9458 -8.66707 0.101652
    CHANNELS 3 Zrotation Xrotation Yrotation
    JOINT RightLeg
    {
      OFFSET 0 -44.4227 1.3727
      CHANNELS 3 Zrotation Xrotation Yrotation
      JOINT RightFoot
      {
        OFFSET 0.253549 -42.0924 -1.46059
        CHANNELS 3 Zrotation Xrotation Yrotation
        JOINT RightToes
        {
          OFFSET 0.04 -4.41509 8.4991
          CHANNELS 3 Zrotation Xrotation Yrotation
          End Site
          {
            OFFSET -0.08 -0.137448 9.77979
          }
        }
      }
    }
  }
  JOINT Spine
  {
    OFFSET 0 11.8905 0
    CHANNELS 3 Zrotation Xrotation Yrotation
    JOINT Spine1
    {
      OFFSET 0 25.6574 0.127663
      CHANNELS 3 Zrotation Xrotation Yrotation
      JOINT RightShoulder
      {
        OFFSET -8.99 -0.362252 -0.22
        CHANNELS 3 Zrotation Xrotation Yrotation
        JOINT RightArm
        {
          OFFSET -10.2827 -0.00338 0.322123
          CHANNELS 3 Zrotation Xrotation Yrotation
          JOINT RightForeArm
          {
            OFFSET -32.8971 0.099144 -1.42434
            CHANNELS 3 Zrotation Xrotation Yrotation
            JOINT RightHand
            {
              OFFSET -27.4921 0.085362 1.02216
              CHANNELS 3 Zrotation Xrotation Yrotation
              End Site
              {
                OFFSET -16.6312 -0.6 1.50291
              }
            }
          }
        }
      }
      JOINT HEad
      {
        OFFSET 0 8.73416 0.011341
        CHANNELS 3 Zrotation Xrotation Yrotation
        End Site
        {
          OFFSET -0.29 12.7742 2.51395
        }
      }
      JOINT LeftShoulder1
      {
        OFFSET 8.99 -0.362252 -0.22
        CHANNELS 3 Zrotation Xrotation Yrotation
        JOINT LeftArm
        {
          OFFSET 10.2827 -0.00338 0.322123
          CHANNELS 3 Zrotation Xrotation Yrotation
          JOINT LeftForeArm
          {
            OFFSET 32.7669 0.099144 -1.42434
            CHANNELS 3 Zrotation Xrotation Yrotation
            JOINT LeftHand
            {
              OFFSET 27.5643 0.085362 1.02216
              CHANNELS 3 Zrotation Xrotation Yrotation
              End Site
              {
                OFFSET 16.7443 -0.6 1.50291
              }
            }
          }
        }
      }
    }
  }
  JOINT LeftUpLeg
  {
    OFFSET 8.9458 -8.66707 0.101652
    CHANNELS 3 Zrotation Xrotation Yrotation
    JOINT LeftLeg
    {
      OFFSET 0 -44.4227 1.3727
      CHANNELS 3 Zrotation Xrotation Yrotation
      JOINT LeftFoot
      {
        OFFSET -0.253549 -42.0924 -1.46059
        CHANNELS 3 Zrotation Xrotation Yrotation
        JOINT LeftToes
        {
          OFFSET -0.04 -4.41509 8.4991
          CHANNELS 3 Zrotation Xrotation Yrotation
          End Site
          {
            OFFSET 0.08 -0.047448 9.77979
          }
        }
      }
    }
  }
}
MOTION
Frames:	19
Frame Time:	0.0166667
139.543 72.1462 90.916 -1.45698 15.0652 -161.538 -10.4761 4.93805 -0.544667 109.107 70.9415 -122.606 37.0201 -52.8751 14.5769 0.0462048 0.000533403 0.662642 0.688922 6.74294 6.33302 1.7622 13.354 12.8836 17.6191 4.31928 18.9075 93.5529 -27.3973 55.1533 -23.6138 67.3691 143.76 -24.817 24.9032 -29.6588 -8.45149 -0.676402 9.31687 6.62086e-032 -3.97569e-016 9.54166e-015 -38.2417 -69.9391 30.3763 -60.2177 53.0293 -56.9929 15.2155 13.8874 -41.775 23.4207 -64.6515 12.665 -81.0897 84.6303 65.8727 -3.38582 -12.1672 -16.1277 -1.32115e-009 1.56007e-007 -4.88604e-009 
140.338 72.864 92.8032 -2.22144 14.4435 -160.933 -11.0852 2.74311 -0.824414 108.2 70.3229 -122.865 34.5933 -51.9043 12.8333 0.0462048 0.000533403 0.662642 0.595818 6.67554 6.14298 1.56653 13.1915 12.5326 17.9866 4.39456 18.9339 92.182 -27.8037 55.6708 -24.8182 66.4939 144.917 -21.1262 24.911 -34.2186 -8.24091 -1.3269 9.62941 -8.82781e-032 -7.95139e-016 -6.36111e-015 -39.9273 -71.0541 27.6432 -55.9755 55.5298 -62.3871 17.7933 12.937 -40.956 17.0857 -65.5915 8.51294 -23.9147 86.2781 7.72941 -6.76195 -11.8331 -16.7487 -1.32115e-009 1.56007e-007 -4.88604e-009 
141.11 73.8755 94.5012 -2.85793 13.6365 -160.401 -11.4971 0.448722 -0.951502 106.663 69.8719 -122.393 32.6433 -50.9394 11.3833 0.0462048 0.000533403 0.662642 0.576129 6.51896 5.9142 1.37896 12.8845 12.0791 18.5215 4.49722 18.9379 90.291 -28.3541 55.5689 -25.8449 65.2216 145.764 -17.5664 24.6304 -38.3851 -7.97903 -2.02957 10.0325 -7.95139e-016 1.59028e-015 3.18055e-015 -42.9183 -71.6233 23.1139 -50.4712 57.6582 -69.3105 20.3179 12.1587 -39.5326 9.84839 -65.9969 3.37711 26.0703 83.4518 -43.4178 -10.1142 -12.2821 -17.3825 -1.32115e-009 1.56007e-007 -4.88603e-009 
141.824 75.1771 95.9897 -3.34996 12.6662 -160.067 -11.6635 -1.85477 -0.954724 104.484 69.7409 -121.146 31.521 -50.2821 10.4635 0.0462048 0.000533403 0.662642 0.598232 6.28358 5.67153 1.17478 12.4481 11.5737 19.168 4.62665 18.9656 88.133 -28.9902 54.7916 -26.2789 63.8477 146.084 -14.5689 24.1833 -41.7033 -7.66861 -2.72883 10.4931 -8.82781e-032 7.95139e-016 6.36111e-015 -46.7684 -71.6368 17.3511 -44.5362 59.0556 -76.7618 22.4427 11.6648 -37.8081 2.91275 -65.7203 -1.83578 42.0796 79.1272 -60.5437 -13.1068 -13.606 -17.9867 -1.32115e-009 1.56007e-007 -4.88603e-009 
142.447 76.7533 97.2787 -3.71517 11.5521 -160.035 -11.6169 -4.12236 -0.870838 101.636 70.0562 -119.032 31.3512 -50.0624 10.1228 0.0462048 0.000533403 0.662642 0.593084 5.99832 5.43916 0.915623 11.9162 11.0799 19.8519 4.78416 19.0826 85.9512 -29.6686 53.3817 -25.9059 62.6042 145.814 -12.5126 23.7692 -43.8771 -7.31572 -3.39225 10.9578 3.97569e-016 0 -3.18055e-015 -50.8229 -71.2122 11.146 -39.1974 59.7267 -83.5376 23.9869 11.4305 -36.1877 -2.30898 -64.8903 -5.94204 48.167 75.2482 -67.4687 -15.4323 -15.5804 -18.4698 -1.32115e-009 1.56007e-007 -4.88603e-009 
142.957 78.5705 98.401 -3.98269 10.3121 -160.395 -11.4606 -6.34066 -0.749506 97.9957 70.8837 -115.817 32.0426 -50.2067 10.268 0.0462048 0.000533403 0.662642 0.489737 5.69925 5.24028 0.572274 11.3332 10.6637 20.4871 4.9683 19.3463 83.945 -30.3649 51.4741 -24.7001 61.6049 145.009 -11.5869 23.5535 -44.8138 -6.94285 -4.00507 11.3637 3.97569e-016 0 6.36111e-015 -54.6192 -70.5584 5.10023 -35.2668 59.9326 -88.6922 24.9202 11.3575 -35.0096 -5.00314 -63.8385 -8.17938 50.2182 72.5693 -69.9345 -16.8891 -17.7299 -18.7195 -1.32115e-009 1.56007e-007 -4.88604e-009 
143.335 80.575 99.3981 -4.17371 8.96933 -161.21 -11.3242 -8.51523 -0.664877 93.2801 72.2053 -111.105 33.29 -50.4939 10.6855 0.0462048 0.000533403 0.662642 0.251479 5.41605 5.09788 0.141512 10.7431 10.3826 20.9898 5.16998 19.7793 82.2625 -31.0702 49.2752 -22.7806 60.8639 143.803 -11.7438 23.5854 -44.5976 -6.59581 -4.55881 11.6543 2.64834e-031 1.59028e-015 -9.54166e-015 -58.0498 -69.8945 -0.548883 -33.153 59.9852 -91.7444 25.2994 11.3498 -34.4626 -5.1538 -62.8344 -8.41428 49.8097 71.3301 -69.5087 -17.4006 -19.569 -18.644 -1.32115e-009 1.56007e-007 -4.88603e-009 
143.574 82.6938 100.307 -4.29252 7.56111 -162.508 -11.3099 -10.6607 -0.714209 87.0144 73.8986 -104.343 34.6103 -50.6503 11.0645 0.0462048 0.000533403 0.662642 -0.107819 5.16458 5.03111 -0.350474 10.1834 10.2714 21.2971 5.37077 20.3556 81.0089 -31.7886 47.0323 -20.3845 60.3481 142.396 -12.7255 23.7944 -43.4571 -6.33758 -5.0388 11.7949 7.95139e-016 -7.95139e-016 1.59028e-014 -61.2471 -69.3758 -5.82111 -32.944 60.0896 -92.5898 25.2062 11.3562 -34.5768 -3.25449 -61.9134 -6.93924 47.5609 71.3306 -66.9053 -17.021 -20.794 -18.2075 -1.32115e-009 1.56007e-007 -4.88604e-009 
143.683 84.8434 101.151 -4.33204 6.14247 -164.264 -11.4634 -12.7804 -0.991925 78.5846 75.7114 -94.9195 35.4666 -50.4389 11.0749 0.0462048 0.000533403 0.662642 -0.534061 4.94925 5.04705 -0.85842 9.68454 10.3302 21.3855 5.54654 21.0042 80.2412 -32.5309 44.9893 -17.8256 60.0178 141.032 -14.1444 24.0545 -41.7388 -6.23037 -5.41771 11.7815 -7.95139e-016 -7.95139e-016 -0 -64.4021 -69.0613 -10.8177 -34.521 60.283 -91.3596 24.7194 11.3731 -35.2567 -0.0604294 -60.9169 -4.29732 43.9642 72.0756 -62.7547 -15.9332 -21.2891 -17.4468 -1.32115e-009 1.56007e-007 -4.88604e-009 
143.682 86.9299 101.939 -4.29689 4.78447 -166.402 -11.7883 -14.8406 -1.54243 67.6997 77.2713 -82.6542 35.4819 -49.7147 10.5124 0.0462048 0.000533403 0.662642 -0.986868 4.77004 5.13611 -1.33997 9.27224 10.521 21.2824 5.6769 21.6322 79.9427 -33.2993 43.3318 -15.4212 59.8309 139.946 -15.5991 24.2621 -39.8521 -6.31359 -5.65665 11.6382 -1.32417e-031 2.38542e-015 3.18055e-015 -67.6336 -68.9216 -15.5979 -37.57 60.4616 -88.3916 23.9201 11.4247 -36.3234 3.55952 -59.6485 -1.16971 39.7238 73.0161 -57.8987 -14.4211 -21.031 -16.4579 -1.32115e-009 1.56007e-007 -4.88603e-009 
143.601 88.8746 102.668 -4.18038 3.55932 -168.783 -12.2581 -16.7436 -2.33272 55.2961 78.1673 -68.6831 34.5527 -48.4223 9.38417 0.0462048 0.000533403 0.662642 -1.40165 4.63034 5.26249 -1.75324 8.96654 10.7719 21.063 5.75498 22.1549 80.0062 -34.0638 42.1444 -13.4215 59.713 139.298 -16.7756 24.3768 -38.1831 -6.58819 -5.71412 11.4056 7.95139e-016 3.18055e-015 -3.18055e-015 -70.9357 -68.8714 -20.1292 -41.5397 60.4692 -84.2511 22.9169 11.5341 -37.5551 6.83706 -57.9908 1.7956 35.7928 73.7315 -53.4036 -12.8243 -20.049 -15.3673 -1.32115e-009 1.56007e-007 -4.88603e-009 
143.469 90.6279 103.315 -3.96341 2.52419 -171.245 -12.8479 -18.3282 -3.24311 44.1958 78.1704 -56.0619 32.82 -46.5852 7.88614 0.0462048 0.000533403 0.662642 -1.69856 4.53545 5.38013 -2.07252 8.77772 10.9953 20.8253 5.7897 22.5219 80.2594 -34.7576 41.4044 -11.9885 59.5383 139.182 -17.4952 24.4109 -37.0231 -7.01519 -5.55643 11.1242 7.95139e-016 1.59028e-015 -0 -74.1875 -68.8107 -24.294 -45.6859 60.2117 -79.6802 21.8619 11.6985 -38.7279 9.32683 -55.9021 4.16131 32.9349 74.0167 -50.1101 -11.4934 -18.5105 -14.2998 -1.32115e-009 1.56007e-007 -4.88603e-009 
143.31 92.1466 103.864 -3.63886 1.71343 -173.623 -13.5407 -19.4264 -4.09143 37.3712 77.4128 -47.9679 30.5466 -44.2999 6.28731 0.0462048 0.000533403 0.662642 -1.83778 4.48778 5.44856 -2.28542 8.70116 11.1098 20.6543 5.79903 22.7239 80.5186 -35.2986 41.0093 -11.2051 59.1421 139.636 -17.6908 24.395 -36.5522 -7.52706 -5.16685 10.8215 -0 0 3.18055e-015 -77.2114 -68.6564 -27.9349 -49.2559 59.7273 -75.4115 20.9438 11.8795 -39.6497 10.9678 -53.38 5.74634 31.1363 73.8864 -48.0602 -10.6937 -16.8223 -13.3368 -1.32115e-009 1.56007e-007 -4.88603e-009 
143.147 93.3878 104.304 -3.20959 1.13243 -175.785 -14.2861 -19.9209 -4.69011 35.3771 76.183 -45.0548 27.9708 -41.7016 4.78943 0.0462048 0.000533403 0.662642 -1.8157 4.48183 5.43866 -2.3873 8.7146 11.0605 20.5924 5.79885 22.7827 80.6452 -35.6194 40.822 -11.0835 58.3608 140.652 -17.348 24.3477 -36.8646 -8.0474 -4.54974 10.505 -7.95139e-016 -4.77083e-015 6.36111e-015 -79.8449 -68.3575 -30.9116 -51.7162 59.1692 -71.9537 20.3487 12.0177 -40.182 11.9327 -50.4441 6.54717 29.7784 73.4686 -46.613 -10.5098 -15.6021 -12.5133 -1.32115e-009 1.56007e-007 -4.88603e-009 
142.998 94.3064 104.637 -2.69098 0.759887 -177.646 -14.9819 -19.7819 -4.90778 36.6408 74.6875 -45.6847 25.2721 -38.9277 3.48073 0.0462048 0.000533403 0.662642 -1.66306 4.50215 5.33756 -2.37809 8.78238 10.8284 20.6281 5.79463 22.7305 80.5837 -35.6879 40.721 -11.5599 57.0818 142.17 -16.4583 24.261 -37.9941 -8.50777 -3.7348 10.166 7.95139e-016 -1.59028e-015 -3.18055e-015 -81.9908 -67.8958 -33.1388 -52.8635 58.7224 -69.5007 20.2066 12.0649 -40.2411 12.4779 -47.1585 6.66504 28.1005 72.9267 -44.8899 -10.7895 -15.4694 -11.8372 -1.32115e-009 1.56007e-007 -4.88603e-009 
142.874 94.864 104.879 -2.10727 0.553852 -179.173 -15.4994 -19.073 -4.71707 39.0212 73.0645 -47.5017 22.624 -36.1142 2.38116 0.0462048 0.000533403 0.662642 -1.43406 4.5301 5.14895 -2.26137 8.86722 10.4285 20.7082 5.7806 22.5949 80.3694 -35.5125 40.639 -12.4967 55.2792 144.056 -15.0129 24.0949 -39.9082 -8.85857 -2.78286 9.7878 -3.97569e-016 1.59028e-015 -3.18055e-015 -83.6283 -67.2768 -34.5937 -52.803 58.52 -67.9872 20.5413 12.0156 -39.7932 12.8638 -43.6621 6.26425 25.5101 72.3919 -42.1344 -11.2505 -16.7798 -11.3085 -1.32115e-009 1.56007e-007 -4.88604e-009 
142.784 95.0539 105.072 -1.48679 0.461843 179.622 -15.7279 -17.9259 -4.20031 40.8425 71.4525 -48.5851 20.2085 -33.4197 1.4936 0.0462048 0.000533403 0.662642 -1.19141 4.55375 4.89153 -2.04669 8.94561 9.89922 20.7638 5.74526 22.3939 80.1089 -35.1417 40.5838 -13.7082 53.0418 146.12 -13.0388 23.7887 -42.4743 -9.0702 -1.79482 9.35611 0 0 -0 -84.7918 -66.5187 -35.3029 -51.8746 58.5964 -67.1859 21.2458 11.9178 -38.8637 13.2985 -40.1701 5.54015 21.7856 71.9031 -37.9986 -11.7107 -19.4817 -10.9193 -1.32115e-009 1.56007e-007 -4.88603e-009 
142.731 94.9341 105.265 -0.851593 0.431635 178.692 -15.6029 -16.4953 -3.50297 41.1972 69.9332 -47.9149 18.1482 -31.0312 0.818043 0.0462048 0.000533403 0.662642 -0.980288 4.57476 4.59383 -1.75774 9.01951 9.29043 20.7371 5.67919 22.1416 79.9441 -34.6638 40.6326 -15.006 50.5847 148.153 -10.6638 23.2939 -45.4262 -9.13009 -0.91498 8.86621 -7.95139e-016 1.59028e-015 1.59028e-015 -85.5375 -65.6365 -35.3199 -50.5564 58.8859 -66.8043 22.1055 11.8501 -37.56 13.9033 -36.9492 4.70188 17.2204 71.4032 -32.7702 -12.2094 -23.1135 -10.6489 -1.32115e-009 1.56007e-007 -4.88604e-009 
142.713 94.6257 105.513 -0.210009 0.422525 177.969 -15.1069 -14.9227 -2.7657 39.8597 68.4562 -45.371 16.4381 -29.1341 0.347619 0.0462048 0.000533403 0.662642 -0.81077 4.61195 4.28286 -1.42879 9.12032 8.65645 20.5988 5.58077 21.8554 80.0103 -34.209 40.9044 -16.2365 48.2448 149.977 -8.15843 22.627 -48.3782 -9.03947 -0.321684 8.32589 -8.82781e-032 1.59028e-015 3.18055e-015 -85.9196 -64.6283 -34.7136 -49.3352 59.2528 -66.5819 22.8664 11.878 -36.0793 14.7083 -34.2972 3.963 12.6173 70.849 -27.3923 -12.8725 -26.8639 -10.451 -1.32115e-009 1.56007e-007 -4.88603e-009 
